<svg id="visual" viewBox="0 0 1600 920" width="1600" height="920" xmlns="http://www.w3.org/2000/svg" xmlns:xlink="http://www.w3.org/1999/xlink" version="1.1"><path d="M0 534L229 534L229 565L457 565L457 393L686 393L686 581L914 581L914 418L1143 418L1143 470L1371 470L1371 581L1600 581L1600 548L1600 921L1600 921L1371 921L1371 921L1143 921L1143 921L914 921L914 921L686 921L686 921L457 921L457 921L229 921L229 921L0 921Z" fill="#9900ff"></path><path d="M0 625L229 625L229 641L457 641L457 561L686 561L686 671L914 671L914 581L1143 581L1143 574L1371 574L1371 672L1600 672L1600 625L1600 921L1600 921L1371 921L1371 921L1143 921L1143 921L914 921L914 921L686 921L686 921L457 921L457 921L229 921L229 921L0 921Z" fill="#7700c6"></path><path d="M0 764L229 764L229 752L457 752L457 775L686 775L686 827L914 827L914 818L1143 818L1143 682L1371 682L1371 808L1600 808L1600 689L1600 921L1600 921L1371 921L1371 921L1143 921L1143 921L914 921L914 921L686 921L686 921L457 921L457 921L229 921L229 921L0 921Z" fill="#560090"></path></svg>